<svg xmlns="http://www.w3.org/2000/svg" xmlns:xlink="http://www.w3.org/1999/xlink" xmlns:lucid="lucid" width="1120" height="940"><g transform="translate(-500 -160)" lucid:page-tab-id="0_0"><path d="M0 0h1760v1360H0z" fill="#fff"/><path d="M520 180h1080v900H520z" stroke="#333" fill="#fff"/><path d="M1059.52 352.5v10.4m0 10.4v20.8m0 10.4v20.8m0 10.4v20.82m0 10.4v20.8m0 10.4v20.8m0 10.4v20.8m0 10.42v20.8m0 10.4v20.8m0 10.4v20.8m0 10.4v20.82m0 10.4v10.4l.07.17.16.07.17.07.07.17v10.4m0 10.4v20.8m0 10.4v20.8m0 10.4v20.82m0 10.4v20.8m0 10.4v20.8m0 10.4v20.8m0 10.42v20.8m0 10.4v20.8m0 10.4v20.8m0 10.4v20.82m0 10.4v10.4" stroke="#333" fill="none"/><path d="M1060.02 352.5h-1v-.5h1z" fill="#333"/><path d="M1060 1039.5v.5" stroke="#333" fill="none"/><path d="M1039.52 784h40v20h-40z" stroke="#fff" fill="#fff"/><path d="M1049.28 788h20.48v20h-20.48zM1051.28 905h20.48v20h-20.48z" stroke="#fff" fill="#fff"/><path d="M699.76 352.5v9.96m0 9.95v19.93m0 9.95v19.92m0 9.95v19.92m0 9.95v19.9m0 9.97v19.9m0 9.96v19.9m0 9.97v19.9m0 9.97v19.9m0 9.97v19.9m0 9.97v19.9m0 9.97v19.92m0 9.96v19.9m0 9.97v19.9m0 9.97v19.9m0 9.97v19.9m0 9.96v19.9m0 9.97v19.9m0 9.97v19.9m0 9.97v19.9m0 9.96v19.92m0 9.95v19.92m0 9.95v19.92m0 9.94v9.96" stroke="#333" fill="none"/><path d="M700.26 352.5h-1v-.5h1z" fill="#333"/><path d="M699.76 1039.5v.5" stroke="#333" fill="none"/><path d="M679.76 408c0-4.42 3.58-8 8-8h24c4.42 0 8 3.58 8 8v244c0 4.42-3.58 8-8 8h-24c-4.42 0-8-3.58-8-8zM1039.52 408c0-4.42 3.58-8 8-8h24c4.42 0 8 3.58 8 8v244c0 4.42-3.58 8-8 8h-24c-4.42 0-8-3.58-8-8z" stroke="#f2f2f2" fill="#d2d3d5"/><path d="M1420.36 352.5v10.4m0 10.4v20.8m0 10.42v20.8m0 10.4v20.82m0 10.4v20.8m0 10.4v20.82m0 10.4v20.8m0 10.4v20.82m0 10.4v20.8m0 10.42v20.8m0 10.4V675m0 10.42v10.4l-.06.13-.12.05-.13.05-.05.13v10.4m0 10.4v20.8m0 10.42V769m0 10.4v20.8m0 10.42v20.8m0 10.4v20.82m0 10.4v20.8m0 10.4v20.82m0 10.4v20.8m0 10.4v20.82m0 10.4v20.8m0 10.42v10.4" stroke="#333" fill="none"/><path d="M1420.86 352.5h-1v-.5h1z" fill="#333"/><path d="M1420 1039.5v.5" stroke="#333" fill="none"/><path d="M572 228c0-4.42 3.58-8 8-8h239.52c4.42 0 8 3.58 8 8v116c0 4.42-3.58 8-8 8H580c-4.42 0-8-3.58-8-8z" stroke="#000" stroke-opacity="0" fill="#99d2f2"/><use xlink:href="#a" transform="matrix(1,0,0,1,580.0026892067449,228) translate(53.0859375 67.11458333333334)"/><path d="M931.76 228c0-4.42 3.58-8 8-8h239.52c4.42 0 8 3.58 8 8v116c0 4.42-3.58 8-8 8H939.76c-4.42 0-8-3.58-8-8z" stroke="#000" stroke-opacity="0" fill="#c1e4f7"/><use xlink:href="#b" transform="matrix(1,0,0,1,939.7631509966387,228) translate(16.45182291666667 67.11458333333334)"/><use xlink:href="#c" transform="matrix(1,0,0,1,939.7631509966387,228) translate(182.07682291666669 67.11458333333334)"/><path d="M1292.6 228c0-4.42 3.58-8 8-8h239.5c4.43 0 8 3.58 8 8v116c0 4.42-3.57 8-8 8h-239.5c-4.42 0-8-3.58-8-8z" stroke="#000" stroke-opacity="0" fill="#c1e4f7"/><use xlink:href="#d" transform="matrix(1,0,0,1,1300.597149324858,228) translate(37.40234375 67.11458333333334)"/><use xlink:href="#e" transform="matrix(1,0,0,1,1300.597149324858,228) translate(147.37630208333334 67.11458333333334)"/><path d="M720.76 460.7h301.88" stroke="#333" fill="none"/><path d="M720.77 461.2h-.5v-1h.5z" fill="#333"/><path d="M1037.4 460.7l-14.26 4.64v-9.27z" stroke="#333" fill="#333"/><use xlink:href="#f" transform="matrix(1,0,0,1,766.1970657077868,464.70759625390224) translate(5.115677083333338 20.616319444444443)"/><use xlink:href="#g" transform="matrix(1,0,0,1,766.1970657077868,464.70759625390224) translate(91.44380208333332 20.616319444444443)"/><use xlink:href="#h" transform="matrix(1,0,0,1,766.1970657077868,464.70759625390224) translate(166.98633680555554 20.616319444444443)"/><use xlink:href="#i" transform="matrix(1,0,0,1,766.1970657077868,464.70759625390224) translate(0.0049999999999954525 46.65798611111111)"/><use xlink:href="#j" transform="matrix(1,0,0,1,766.1970657077868,464.70759625390224) translate(33.41428819444444 46.65798611111111)"/><use xlink:href="#k" transform="matrix(1,0,0,1,766.1970657077868,464.70759625390224) translate(95.45855902777777 46.65798611111111)"/><use xlink:href="#l" transform="matrix(1,0,0,1,766.1970657077868,464.70759625390224) translate(121.57618055555554 46.65798611111111)"/><use xlink:href="#m" transform="matrix(1,0,0,1,766.1970657077868,464.70759625390224) translate(163.95899305555554 46.65798611111111)"/><path d="M1038.52 580h-10.06m-10.06 0h-20.13m-10.06 0H968.1m-10.06 0H937.9m-10.07 0H907.7m-10.05 0h-20.13m-10.06 0h-20.13m-10.06 0h-20.12m-10.07 0h-20.12m-10.07 0h-20.13m-10.06 0h-10.06" stroke="#333" fill="none"/><path d="M1039.02 580.5h-.5v-1h.5z" fill="#333"/><path d="M721.88 580l14.26-4.64v9.28z" stroke="#333" fill="#333"/><use xlink:href="#n" transform="matrix(1,0,0,1,772.6532289022313,584) translate(0 20.616319444444443)"/><use xlink:href="#o" transform="matrix(1,0,0,1,772.6532289022313,584) translate(83.63715277777777 20.616319444444443)"/><use xlink:href="#p" transform="matrix(1,0,0,1,772.6532289022313,584) translate(159.1796875 20.616319444444443)"/><path d="M680.12 728c0-4.42 3.58-8 8-8h24c4.42 0 8 3.58 8 8v244c0 4.42-3.58 8-8 8h-24c-4.42 0-8-3.58-8-8zM1400.36 728c0-4.42 3.58-8 8-8h24c4.4 0 8 3.58 8 8v244c0 4.42-3.6 8-8 8h-24c-4.42 0-8-3.58-8-8z" stroke="#f2f2f2" fill="#d2d3d5"/><path d="M721.12 780.7h662.35" stroke="#333" fill="none"/><path d="M721.13 781.2h-.5v-1h.5z" fill="#333"/><path d="M1398.24 780.7l-14.27 4.64v-9.27z" stroke="#333" fill="#333"/><g><use xlink:href="#q" transform="matrix(1,0,0,1,908.3278150041142,784.7075962539022) translate(0.0049999999999954525 20.616319444444443)"/><use xlink:href="#r" transform="matrix(1,0,0,1,908.3278150041142,784.7075962539022) translate(40.06576388888889 20.616319444444443)"/><use xlink:href="#s" transform="matrix(1,0,0,1,908.3278150041142,784.7075962539022) translate(126.39388888888888 20.616319444444443)"/><use xlink:href="#g" transform="matrix(1,0,0,1,908.3278150041142,784.7075962539022) translate(173.48590277777777 20.616319444444443)"/><use xlink:href="#t" transform="matrix(1,0,0,1,908.3278150041142,784.7075962539022) translate(249.0284375 20.616319444444443)"/></g><path d="M1399.36 900h-10.04m-10.04 0h-20.07m-10.02 0h-20.07m-10.03 0H1299m-10.04 0h-20.07m-10.04 0h-20.07m-10.05 0h-20.07m-10.04 0h-20.07m-10.03 0h-20.08m-10.03 0h-20.07m-10.04 0h-20.07m-10.03 0h-20.08m-10.03 0h-20.06m-10.04 0h-20.07m-10.04 0H967.8m-10.03 0H937.7m-10.04 0H907.6m-10.03 0H877.5m-10.03 0H847.4m-10.04 0H817.3m-10.05 0h-20.07m-10.03 0h-20.08m-10.03 0H737" stroke="#333" fill="none"/><path d="M1399.86 900.5h-.52v-1h.52z" fill="#333"/><path d="M722.24 900l14.26-4.64v9.28z" stroke="#333" fill="#333"/><g><use xlink:href="#u" transform="matrix(1,0,0,1,991.4332837541142,904) translate(0 20.616319444444443)"/><use xlink:href="#v" transform="matrix(1,0,0,1,991.4332837541142,904) translate(40.06076388888889 20.616319444444443)"/></g><defs><path fill="#333" d="M973-380H363L226 0H28l556-1456h168L1309 0h-197zM421-538h495l-248-681" id="w"/><path fill="#333" d="M632-1102c291 0 422 251 422 573 0 297-141 548-419 549-131 0-235-42-310-125v521H140v-1498h169l9 120c75-93 180-140 314-140zm-53 971c207 0 290-180 290-419 0-218-92-395-292-395-112 0-196 50-252 149v517c55 99 140 148 254 148" id="x"/><path fill="#333" d="M341 0H156v-1536h185V0" id="y"/><path fill="#333" d="M341 0H156v-1082h185V0zm-91-1264c-68 0-108-42-109-105 0-62 41-107 109-107s110 44 110 107-42 105-110 105" id="z"/><path fill="#333" d="M277-555c0 244 77 420 297 424 127 2 249-93 255-210h175C980-127 805 20 574 20 258 20 81-222 92-562c11-319 164-533 481-540 237-5 426 165 431 392H829c-7-133-115-242-256-240-209 4-296 166-296 395" id="A"/><path fill="#333" d="M561-1102c238-4 403 126 403 351v498c0 99 13 178 38 237V0H808c-11-21-19-59-26-114C696-25 593 20 474 20c-199 0-368-130-365-320 4-251 214-359 490-356h180v-85c-1-135-86-212-229-212-115 0-232 67-233 171H131c20-205 206-316 430-320zM294-326c0 117 90 185 207 185 122 0 239-75 278-162v-222H634c-227 0-340 66-340 199" id="B"/><path fill="#333" d="M456 20C285 20 205-92 206-268v-671H9v-143h197v-262h185v262h202v143H391v671c-9 125 92 149 207 118V0c-49 13-96 20-142 20" id="C"/><path fill="#333" d="M584 20C278 26 81-227 91-551c10-320 175-545 491-551 308-5 503 247 494 573-9 322-175 543-492 549zm-2-970c-208 0-305 185-305 421 0 216 106 398 307 398 211 0 307-186 307-420 0-214-109-399-309-399" id="D"/><path fill="#333" d="M589-945c-131 0-219 81-264 174V0H140v-1082h175l6 136c83-104 191-156 324-156 229 0 346 129 346 387V0H806v-716c-2-153-65-229-217-229" id="E"/><g id="a"><use transform="matrix(0.013020833333333334,0,0,0.013020833333333334,0,0)" xlink:href="#w"/><use transform="matrix(0.013020833333333334,0,0,0.013020833333333334,17.395833333333336,0)" xlink:href="#x"/><use transform="matrix(0.013020833333333334,0,0,0.013020833333333334,32.356770833333336,0)" xlink:href="#x"/><use transform="matrix(0.013020833333333334,0,0,0.013020833333333334,47.317708333333336,0)" xlink:href="#y"/><use transform="matrix(0.013020833333333334,0,0,0.013020833333333334,53.7890625,0)" xlink:href="#z"/><use transform="matrix(0.013020833333333334,0,0,0.013020833333333334,60.26041666666667,0)" xlink:href="#A"/><use transform="matrix(0.013020833333333334,0,0,0.013020833333333334,74.21875,0)" xlink:href="#B"/><use transform="matrix(0.013020833333333334,0,0,0.013020833333333334,88.72395833333333,0)" xlink:href="#C"/><use transform="matrix(0.013020833333333334,0,0,0.013020833333333334,97.43489583333333,0)" xlink:href="#z"/><use transform="matrix(0.013020833333333334,0,0,0.013020833333333334,103.90625,0)" xlink:href="#D"/><use transform="matrix(0.013020833333333334,0,0,0.013020833333333334,119.11458333333334,0)" xlink:href="#E"/><path fill="#333" d="M-1.33 1.3h136.5v1.3H-1.34z"/></g><path fill="#333" d="M491 20c-241-1-355-148-355-398v-704h185v699c0 164 67 246 200 246 141 0 235-53 282-158v-787h185V0H812l-4-107C736-22 630 20 491 20" id="F"/><path fill="#333" d="M589-945c-131 0-219 81-264 174V0H140v-1536h185v585c82-101 189-151 320-151 229 0 346 129 346 387V0H806v-716c-2-153-65-229-217-229" id="G"/><path fill="#333" d="M663-916c-163-27-288 18-338 148V0H140v-1082h180l3 125c61-97 147-145 258-145 36 0 63 5 82 14v172" id="H"/><path fill="#333" d="M314-151h633V0H88v-136l597-793H97v-153h820v131" id="I"/><g id="b"><use transform="matrix(0.013020833333333334,0,0,0.013020833333333334,0,0)" xlink:href="#w"/><use transform="matrix(0.013020833333333334,0,0,0.013020833333333334,17.395833333333336,0)" xlink:href="#F"/><use transform="matrix(0.013020833333333334,0,0,0.013020833333333334,32.09635416666667,0)" xlink:href="#C"/><use transform="matrix(0.013020833333333334,0,0,0.013020833333333334,40.80729166666667,0)" xlink:href="#G"/><use transform="matrix(0.013020833333333334,0,0,0.013020833333333334,55.49479166666667,0)" xlink:href="#D"/><use transform="matrix(0.013020833333333334,0,0,0.013020833333333334,70.703125,0)" xlink:href="#H"/><use transform="matrix(0.013020833333333334,0,0,0.013020833333333334,79.7265625,0)" xlink:href="#z"/><use transform="matrix(0.013020833333333334,0,0,0.013020833333333334,86.19791666666667,0)" xlink:href="#I"/><use transform="matrix(0.013020833333333334,0,0,0.013020833333333334,99.4140625,0)" xlink:href="#B"/><use transform="matrix(0.013020833333333334,0,0,0.013020833333333334,113.91927083333334,0)" xlink:href="#C"/><use transform="matrix(0.013020833333333334,0,0,0.013020833333333334,122.63020833333334,0)" xlink:href="#z"/><use transform="matrix(0.013020833333333334,0,0,0.013020833333333334,129.1015625,0)" xlink:href="#D"/><use transform="matrix(0.013020833333333334,0,0,0.013020833333333334,144.30989583333334,0)" xlink:href="#E"/><path fill="#333" d="M-1.33 1.3h168.3v1.3H-1.34z"/></g><path fill="#333" d="M1216-1011c-1 297-202 441-512 441H361V0H169v-1456h537c297-6 510 164 510 445zm-192 2c1-178-126-288-307-289H361v571h345c196 1 318-92 318-282" id="J"/><path fill="#333" d="M375 0H183v-1456h192V0" id="K"/><g id="c"><use transform="matrix(0.013020833333333334,0,0,0.013020833333333334,0,0)" xlink:href="#w"/><use transform="matrix(0.013020833333333334,0,0,0.013020833333333334,17.395833333333336,0)" xlink:href="#J"/><use transform="matrix(0.013020833333333334,0,0,0.013020833333333334,34.21875,0)" xlink:href="#K"/><path fill="#333" d="M-1.33 1.3H42.8v1.3H-1.32z"/></g><path fill="#333" d="M704-1390c-164-38-297 28-288 194v114h231v143H416V0H231v-939H60v-143h171v-111c-12-274 208-416 483-347" id="L"/><path fill="#333" d="M1240-945c-141 0-250 95-250 227V0H804v-709c0-157-77-236-231-236-121 0-204 52-249 155V0H139v-1082h175l5 120c79-93 186-140 321-140 151 0 254 58 309 174 69-98 181-174 345-174 237 0 362 126 362 377V0h-185v-714c-2-159-67-231-231-231" id="M"/><g id="d"><use transform="matrix(0.013020833333333334,0,0,0.013020833333333334,0,0)" xlink:href="#J"/><use transform="matrix(0.013020833333333334,0,0,0.013020833333333334,16.822916666666668,0)" xlink:href="#y"/><use transform="matrix(0.013020833333333334,0,0,0.013020833333333334,23.294270833333336,0)" xlink:href="#B"/><use transform="matrix(0.013020833333333334,0,0,0.013020833333333334,37.79947916666667,0)" xlink:href="#C"/><use transform="matrix(0.013020833333333334,0,0,0.013020833333333334,46.51041666666667,0)" xlink:href="#L"/><use transform="matrix(0.013020833333333334,0,0,0.013020833333333334,55.76822916666667,0)" xlink:href="#D"/><use transform="matrix(0.013020833333333334,0,0,0.013020833333333334,70.9765625,0)" xlink:href="#H"/><use transform="matrix(0.013020833333333334,0,0,0.013020833333333334,80,0)" xlink:href="#M"/><path fill="#333" d="M-1.33 1.3H111.3v1.3H-1.32z"/></g><path fill="#333" d="M538-131c121 0 232-49 232-156 0-50-20-88-56-117-73-60-334-92-420-143-92-55-162-110-162-238 0-190 192-317 400-317 223 0 414 129 413 338H759c0-108-110-186-227-186-119 0-215 53-215 159 0 45 18 78 53 101 76 52 331 90 416 139 98 57 169 115 169 251C955-92 760 20 538 20c-176 0-314-68-386-174-38-55-57-115-57-179h185c6 129 116 202 258 202" id="N"/><g id="e"><use transform="matrix(0.013020833333333334,0,0,0.013020833333333334,0,0)" xlink:href="#w"/><use transform="matrix(0.013020833333333334,0,0,0.013020833333333334,17.395833333333336,0)" xlink:href="#J"/><use transform="matrix(0.013020833333333334,0,0,0.013020833333333334,34.21875,0)" xlink:href="#K"/><use transform="matrix(0.013020833333333334,0,0,0.013020833333333334,41.471354166666664,0)" xlink:href="#N"/><path fill="#333" d="M-1.33 1.3h57.9v1.3h-57.9z"/></g><path fill="#333" d="M1161-1018c0 201-122 330-278 388l342 618V0h-206L703-589H361V0H168v-1456h482c310-2 511 139 511 438zm-193 0c0-187-120-280-313-280H361v552h295c179 3 313-101 312-272" id="O"/><path fill="#333" d="M599-131c141 0 220-65 285-146l113 88C906-50 770 20 589 20 281 21 93-214 93-545c0-223 93-397 233-485 74-48 154-72 240-72 300 2 449 218 445 537v77H278c0 197 129 357 321 357zm227-509c-3-180-88-310-260-310-170 0-264 140-282 310h542" id="P"/><path fill="#333" d="M524 20C238 18 95-240 95-550c0-307 146-552 431-552 128 0 229 43 303 129l8-109h170V416H822v-516C747-20 648 20 524 20zm48-970c-208 0-292 182-292 421 0 219 92 398 290 398 110 0 194-49 252-146v-530c-59-95-142-143-250-143" id="Q"/><g id="f"><use transform="matrix(0.010850694444444444,0,0,0.010850694444444444,0,0)" xlink:href="#O"/><use transform="matrix(0.010850694444444444,0,0,0.010850694444444444,13.682725694444445,0)" xlink:href="#P"/><use transform="matrix(0.010850694444444444,0,0,0.010850694444444444,25.455729166666664,0)" xlink:href="#Q"/><use transform="matrix(0.010850694444444444,0,0,0.010850694444444444,38.0859375,0)" xlink:href="#F"/><use transform="matrix(0.010850694444444444,0,0,0.010850694444444444,50.33637152777778,0)" xlink:href="#P"/><use transform="matrix(0.010850694444444444,0,0,0.010850694444444444,62.109375,0)" xlink:href="#N"/><use transform="matrix(0.010850694444444444,0,0,0.010850694444444444,73.56770833333333,0)" xlink:href="#C"/></g><g id="g"><use transform="matrix(0.010850694444444444,0,0,0.010850694444444444,0,0)" xlink:href="#B"/><use transform="matrix(0.010850694444444444,0,0,0.010850694444444444,12.08767361111111,0)" xlink:href="#A"/><use transform="matrix(0.010850694444444444,0,0,0.010850694444444444,23.719618055555554,0)" xlink:href="#A"/><use transform="matrix(0.010850694444444444,0,0,0.010850694444444444,35.3515625,0)" xlink:href="#P"/><use transform="matrix(0.010850694444444444,0,0,0.010850694444444444,47.12456597222222,0)" xlink:href="#N"/><use transform="matrix(0.010850694444444444,0,0,0.010850694444444444,58.58289930555555,0)" xlink:href="#N"/></g><path fill="#333" d="M442-501L326-380V0H141v-1536h185v929c135-169 291-317 436-475h225L566-630 1036 0H819" id="R"/><g id="h"><use transform="matrix(0.010850694444444444,0,0,0.010850694444444444,0,0)" xlink:href="#C"/><use transform="matrix(0.010850694444444444,0,0,0.010850694444444444,7.042100694444444,0)" xlink:href="#D"/><use transform="matrix(0.010850694444444444,0,0,0.010850694444444444,19.715711805555554,0)" xlink:href="#R"/><use transform="matrix(0.010850694444444444,0,0,0.010850694444444444,30.76171875,0)" xlink:href="#P"/><use transform="matrix(0.010850694444444444,0,0,0.010850694444444444,42.534722222222214,0)" xlink:href="#E"/></g><g id="i"><use transform="matrix(0.010850694444444444,0,0,0.010850694444444444,0,0)" xlink:href="#L"/><use transform="matrix(0.010850694444444444,0,0,0.010850694444444444,7.71484375,0)" xlink:href="#D"/><use transform="matrix(0.010850694444444444,0,0,0.010850694444444444,20.38845486111111,0)" xlink:href="#H"/></g><path fill="#333" d="M688-137c238 0 323-102 359-325h193c-32 297-228 482-552 482-361 0-569-299-569-680 0-197 8-360 73-497 88-186 257-317 513-319 316-2 509 195 535 488h-193c-31-212-118-330-342-330-272 0-397 224-393 523v141c-3 282 115 517 376 517" id="S"/><g id="j"><use transform="matrix(0.010850694444444444,0,0,0.010850694444444444,0,0)" xlink:href="#S"/><use transform="matrix(0.010850694444444444,0,0,0.010850694444444444,14.463975694444445,0)" xlink:href="#y"/><use transform="matrix(0.010850694444444444,0,0,0.010850694444444444,19.856770833333332,0)" xlink:href="#z"/><use transform="matrix(0.010850694444444444,0,0,0.010850694444444444,25.24956597222222,0)" xlink:href="#P"/><use transform="matrix(0.010850694444444444,0,0,0.010850694444444444,37.02256944444444,0)" xlink:href="#E"/><use transform="matrix(0.010850694444444444,0,0,0.010850694444444444,49.283854166666664,0)" xlink:href="#C"/></g><path fill="#333" d="M1222-777c17 480-206 763-650 777H169v-1456h411c408 9 627 269 642 679zm-190 4c3-312-149-522-447-525H361v1141h202c308 0 473-209 469-531v-85" id="T"/><g id="k"><use transform="matrix(0.010850694444444444,0,0,0.010850694444444444,0,0)" xlink:href="#K"/><use transform="matrix(0.010850694444444444,0,0,0.010850694444444444,6.043836805555555,0)" xlink:href="#T"/></g><path fill="#333" d="M520 20C244 20 95-247 95-550c0-298 151-550 427-552 127 0 227 43 301 130v-564h185V0H838l-9-116C755-25 652 20 520 20zm48-965c-210 0-288 177-288 416 0 218 87 392 286 392 117 0 203-53 257-158v-497c-55-102-140-153-255-153" id="U"/><g id="l"><use transform="matrix(0.010850694444444444,0,0,0.010850694444444444,0,0)" xlink:href="#B"/><use transform="matrix(0.010850694444444444,0,0,0.010850694444444444,12.08767361111111,0)" xlink:href="#E"/><use transform="matrix(0.010850694444444444,0,0,0.010850694444444444,24.348958333333332,0)" xlink:href="#U"/></g><path fill="#333" d="M631-137c179 0 314-70 314-231 0-71-25-127-75-166s-141-77-272-115c-165-47-285-106-360-175s-112-154-112-255c0-245 231-397 495-397 206 0 369 89 449 218 43 68 65 142 65 223H942c0-184-129-283-321-283-172 0-299 76-301 236 0 59 26 109 76 150s135 78 256 113c205 59 345 116 436 256 35 53 50 119 50 193-2 256-231 398-507 390C333 12 90-129 80-422h193c0 187 160 285 358 285" id="V"/><g id="m"><use transform="matrix(0.010850694444444444,0,0,0.010850694444444444,0,0)" xlink:href="#V"/><use transform="matrix(0.010850694444444444,0,0,0.010850694444444444,13.18359375,0)" xlink:href="#P"/><use transform="matrix(0.010850694444444444,0,0,0.010850694444444444,24.95659722222222,0)" xlink:href="#A"/><use transform="matrix(0.010850694444444444,0,0,0.010850694444444444,36.588541666666664,0)" xlink:href="#H"/><use transform="matrix(0.010850694444444444,0,0,0.010850694444444444,43.90190972222222,0)" xlink:href="#P"/><use transform="matrix(0.010850694444444444,0,0,0.010850694444444444,55.67491319444444,0)" xlink:href="#C"/></g><path fill="#333" d="M730-137c145 0 253-29 323-105v-327H716v-156h528v534C1148-51 964 20 729 20c-394 0-598-279-607-678v-127c-5-410 194-690 585-691 310-1 499 171 537 447h-192c-36-193-151-289-344-289-285 0-393 220-393 528v119c-5 296 140 534 415 534" id="W"/><g id="n"><use transform="matrix(0.010850694444444444,0,0,0.010850694444444444,0,0)" xlink:href="#W"/><use transform="matrix(0.010850694444444444,0,0,0.010850694444444444,15.13671875,0)" xlink:href="#H"/><use transform="matrix(0.010850694444444444,0,0,0.010850694444444444,22.22222222222222,0)" xlink:href="#B"/><use transform="matrix(0.010850694444444444,0,0,0.010850694444444444,34.30989583333333,0)" xlink:href="#E"/><use transform="matrix(0.010850694444444444,0,0,0.010850694444444444,46.57118055555556,0)" xlink:href="#C"/><use transform="matrix(0.010850694444444444,0,0,0.010850694444444444,53.830295138888886,0)" xlink:href="#P"/><use transform="matrix(0.010850694444444444,0,0,0.010850694444444444,65.60329861111111,0)" xlink:href="#U"/></g><g id="o"><use transform="matrix(0.010850694444444444,0,0,0.010850694444444444,0,0)" xlink:href="#B"/><use transform="matrix(0.010850694444444444,0,0,0.010850694444444444,12.08767361111111,0)" xlink:href="#A"/><use transform="matrix(0.010850694444444444,0,0,0.010850694444444444,23.719618055555554,0)" xlink:href="#A"/><use transform="matrix(0.010850694444444444,0,0,0.010850694444444444,35.3515625,0)" xlink:href="#P"/><use transform="matrix(0.010850694444444444,0,0,0.010850694444444444,47.12456597222222,0)" xlink:href="#N"/><use transform="matrix(0.010850694444444444,0,0,0.010850694444444444,58.58289930555555,0)" xlink:href="#N"/></g><g id="p"><use transform="matrix(0.010850694444444444,0,0,0.010850694444444444,0,0)" xlink:href="#C"/><use transform="matrix(0.010850694444444444,0,0,0.010850694444444444,7.042100694444444,0)" xlink:href="#D"/><use transform="matrix(0.010850694444444444,0,0,0.010850694444444444,19.715711805555554,0)" xlink:href="#R"/><use transform="matrix(0.010850694444444444,0,0,0.010850694444444444,30.76171875,0)" xlink:href="#P"/><use transform="matrix(0.010850694444444444,0,0,0.010850694444444444,42.534722222222214,0)" xlink:href="#E"/></g><g id="q"><use transform="matrix(0.010850694444444444,0,0,0.010850694444444444,0,0)" xlink:href="#w"/><use transform="matrix(0.010850694444444444,0,0,0.010850694444444444,14.496527777777777,0)" xlink:href="#J"/><use transform="matrix(0.010850694444444444,0,0,0.010850694444444444,28.515625,0)" xlink:href="#K"/></g><g id="r"><use transform="matrix(0.010850694444444444,0,0,0.010850694444444444,0,0)" xlink:href="#O"/><use transform="matrix(0.010850694444444444,0,0,0.010850694444444444,13.682725694444445,0)" xlink:href="#P"/><use transform="matrix(0.010850694444444444,0,0,0.010850694444444444,25.455729166666664,0)" xlink:href="#Q"/><use transform="matrix(0.010850694444444444,0,0,0.010850694444444444,38.0859375,0)" xlink:href="#F"/><use transform="matrix(0.010850694444444444,0,0,0.010850694444444444,50.33637152777778,0)" xlink:href="#P"/><use transform="matrix(0.010850694444444444,0,0,0.010850694444444444,62.109375,0)" xlink:href="#N"/><use transform="matrix(0.010850694444444444,0,0,0.010850694444444444,73.56770833333333,0)" xlink:href="#C"/></g><path fill="#333" d="M1098-255l208-827h185L1176 0h-150L763-820 507 0H357L43-1082h184l213 810 252-810h149" id="X"/><g id="s"><use transform="matrix(0.010850694444444444,0,0,0.010850694444444444,0,0)" xlink:href="#X"/><use transform="matrix(0.010850694444444444,0,0,0.010850694444444444,16.69921875,0)" xlink:href="#z"/><use transform="matrix(0.010850694444444444,0,0,0.010850694444444444,22.09201388888889,0)" xlink:href="#C"/><use transform="matrix(0.010850694444444444,0,0,0.010850694444444444,29.35112847222222,0)" xlink:href="#G"/></g><g id="t"><use transform="matrix(0.010850694444444444,0,0,0.010850694444444444,0,0)" xlink:href="#C"/><use transform="matrix(0.010850694444444444,0,0,0.010850694444444444,7.042100694444444,0)" xlink:href="#D"/><use transform="matrix(0.010850694444444444,0,0,0.010850694444444444,19.715711805555554,0)" xlink:href="#R"/><use transform="matrix(0.010850694444444444,0,0,0.010850694444444444,30.76171875,0)" xlink:href="#P"/><use transform="matrix(0.010850694444444444,0,0,0.010850694444444444,42.534722222222214,0)" xlink:href="#E"/></g><g id="u"><use transform="matrix(0.010850694444444444,0,0,0.010850694444444444,0,0)" xlink:href="#w"/><use transform="matrix(0.010850694444444444,0,0,0.010850694444444444,14.496527777777777,0)" xlink:href="#J"/><use transform="matrix(0.010850694444444444,0,0,0.010850694444444444,28.515625,0)" xlink:href="#K"/></g><g id="v"><use transform="matrix(0.010850694444444444,0,0,0.010850694444444444,0,0)" xlink:href="#O"/><use transform="matrix(0.010850694444444444,0,0,0.010850694444444444,13.682725694444445,0)" xlink:href="#P"/><use transform="matrix(0.010850694444444444,0,0,0.010850694444444444,25.455729166666664,0)" xlink:href="#N"/><use transform="matrix(0.010850694444444444,0,0,0.010850694444444444,36.9140625,0)" xlink:href="#x"/><use transform="matrix(0.010850694444444444,0,0,0.010850694444444444,49.381510416666664,0)" xlink:href="#D"/><use transform="matrix(0.010850694444444444,0,0,0.010850694444444444,62.05512152777778,0)" xlink:href="#E"/><use transform="matrix(0.010850694444444444,0,0,0.010850694444444444,74.31640625,0)" xlink:href="#N"/><use transform="matrix(0.010850694444444444,0,0,0.010850694444444444,85.77473958333333,0)" xlink:href="#P"/></g></defs></g></svg>