<svg viewBox="0 0 229.65 28.84" xmlns="http://www.w3.org/2000/svg"><path d="m41.13 15.91-2.86-8.48h-4l4.88 14.45h4l4.85-14.45h-4zm14.31-8.75a6.68 6.68 0 0 0 -3.52.93 6.25 6.25 0 0 0 -2.39 2.64 8.75 8.75 0 0 0 -.84 3.89v.38a6.93 6.93 0 0 0 2 5.19 7.09 7.09 0 0 0 5.17 1.95 7.69 7.69 0 0 0 3.29-.69 5.7 5.7 0 0 0 2.35-1.91l-1.9-2.12a4.17 4.17 0 0 1 -3.48 1.58 3.43 3.43 0 0 1 -2.39-.85 3.64 3.64 0 0 1 -1.12-2.08h9.2v-1.74a7.57 7.57 0 0 0 -1.71-5.33 6 6 0 0 0 -4.66-1.84zm2.56 6.05h-5.35a4 4 0 0 1 .91-2.16 2.42 2.42 0 0 1 1.86-.78 2.5 2.5 0 0 1 1.9.71 2.85 2.85 0 0 1 .68 2.02zm21.77-8.28h-3.86v2.5h-1.39v2.89h1.39v9.54a2 2 0 0 0 2 2h4.31v-3.1h-2.45v-8.44h2.47v-2.89h-2.47zm31.08 2.5h-4l-2.59 4.05-2.58-4.05h-4l4.6 7.22-4.6 7.23h4l2.58-4.06 2.59 4.06h4l-4.61-7.23zm-42.67 1.72v-1.72h-3.86v14.45h3.86v-7.3c0-2.14 1-4.26 2.87-4.26h1.39l.06-2.89h-1.21a3.17 3.17 0 0 0 -3.11 1.72zm22.52-2a6.65 6.65 0 0 0 -3.51.93 6.19 6.19 0 0 0 -2.39 2.64 8.75 8.75 0 0 0 -.8 3.9v.38a6.93 6.93 0 0 0 2 5.19 7.08 7.08 0 0 0 5.17 1.95 7.72 7.72 0 0 0 3.29-.69 5.77 5.77 0 0 0 2.35-1.91l-1.9-2.12a4.18 4.18 0 0 1 -3.52 1.58 3.41 3.41 0 0 1 -2.39-.82 3.65 3.65 0 0 1 -1.13-2.08h9.2v-1.77a7.57 7.57 0 0 0 -1.7-5.33 6 6 0 0 0 -4.67-1.84zm2.58 6.05h-5.37a4 4 0 0 1 .92-2.16 2.39 2.39 0 0 1 1.86-.78 2.5 2.5 0 0 1 1.9.71 2.9 2.9 0 0 1 .69 2z" fill="#fff" transform="translate(-.25 -.24)"/><path d="m16.68 7.2 4.17 7.19-.03.05-4.14 7.2 8.31-.01 4.17-7.25-4.16-7.19z" fill="#f90"/><path d="m4.16 14.42 4.16-7.22h.05 8.31l-4.15-7.2h-8.37l-4.15 7.2z" fill="#0c0"/><path d="m4.16 14.42 4.15 7.22h.05 8.32l-4.16 7.2h-8.37l-4.15-7.2z" fill="#09c"/><g fill="#fff" transform="translate(-.25 -.24)"><path d="m118.72 22v-14.6h4.07a6.29 6.29 0 0 1 3.21.82 5.59 5.59 0 0 1 2.21 2.33 7.36 7.36 0 0 1 .79 3.45v1.34a7.3 7.3 0 0 1 -.79 3.46 5.57 5.57 0 0 1 -2.21 2.34 6.45 6.45 0 0 1 -3.29.82zm1.28-13.56v12.48h2.76a4.75 4.75 0 0 0 3.69-1.52 5.9 5.9 0 0 0 1.39-4.13v-1.27a5.79 5.79 0 0 0 -1.37-4 4.69 4.69 0 0 0 -3.61-1.52z"/><path d="m140.58 15h-6.81v5.94h7.83v1h-9.06v-14.54h9v1h-7.78v5.5h6.81z"/><path d="m149 20.16.08.31.09-.31 4.58-12.76h1.35l-5.43 14.6h-1.18l-5.42-14.6h1.34z"/><path d="m165.69 15h-6.81v5.94h7.83v1h-9.06v-14.54h9v1h-7.78v5.5h6.81z"/><path d="m171 20.92h7.19v1h-8.43v-14.52h1.24z"/><path d="m191 15.47a8.45 8.45 0 0 1 -.7 3.53 5.2 5.2 0 0 1 -2 2.34 5.45 5.45 0 0 1 -3 .82 5.17 5.17 0 0 1 -4.13-1.82 7.34 7.34 0 0 1 -1.57-4.93v-1.5a8.32 8.32 0 0 1 .71-3.52 5.57 5.57 0 0 1 8-2.39 5.31 5.31 0 0 1 2 2.29 8.36 8.36 0 0 1 .73 3.43zm-1.24-1.58a6.45 6.45 0 0 0 -1.18-4.12 4 4 0 0 0 -3.27-1.49 3.93 3.93 0 0 0 -3.23 1.5 6.43 6.43 0 0 0 -1.18 4.22v1.52a6.44 6.44 0 0 0 1.2 4.11 3.94 3.94 0 0 0 3.27 1.51 3.87 3.87 0 0 0 3.25-1.49 6.57 6.57 0 0 0 1.17-4.17z"/><path d="m195.77 16v6h-1.23v-14.6h5a5.23 5.23 0 0 1 3.58 1.16 4 4 0 0 1 1.32 3.19 4 4 0 0 1 -1.27 3.17 5.37 5.37 0 0 1 -3.7 1.08zm0-1h3.73a3.93 3.93 0 0 0 2.73-.85 3 3 0 0 0 .94-2.37 3.15 3.15 0 0 0 -.94-2.41 3.72 3.72 0 0 0 -2.65-.92h-3.81z"/><path d="m215.6 15h-6.81v5.94h7.83v1h-9.06v-14.54h9v1h-7.78v5.5h6.81z"/><path d="m225.06 15.89h-4.23v6.11h-1.24v-14.6h4.73a5.39 5.39 0 0 1 3.68 1.13 3.92 3.92 0 0 1 1.32 3.16 4 4 0 0 1 -.82 2.46 4.15 4.15 0 0 1 -2.2 1.48l3.64 6.2v.17h-1.31zm-4.23-1h3.78a3.49 3.49 0 0 0 2.49-.89 3 3 0 0 0 .94-2.28 3 3 0 0 0 -1-2.4 4 4 0 0 0 -2.75-.85h-3.47z"/></g></svg>