<svg xmlns="http://www.w3.org/2000/svg" viewBox="0 0 720 191.19" class="logo">
			<polyline points="110.61 47.72 138.22 95.41 138.06 95.7 110.56 143.47 165.67 143.4 193.34 95.35 165.72 47.65 110.61 47.72" fill="#fff"></polyline>
			<polyline points="27.62 95.48 55.16 47.74 55.5 47.74 110.61 47.72 83.04 0 27.59 0.02 0.05 47.76 27.62 95.48" fill="#fff"></polyline>
			<polyline points="27.57 95.72 55.11 143.45 55.45 143.45 110.56 143.47 82.99 191.19 27.54 191.17 0 143.44 27.57 95.72" fill="#fff"></polyline>
			<path class="vertex" d="M257.79,103.86l-19-56.24H212l32.35,95.79H271.2l32.35-95.79H276.78Zm94.85-58A44.4,44.4,0,0,0,329.31,52a41.05,41.05,0,0,0-15.8,17.53,57.88,57.88,0,0,0-5.58,25.81v2.48q0,21.51,13.24,34.44t34.3,12.92a51.11,51.11,0,0,0,21.78-4.56,38.36,38.36,0,0,0,15.58-12.7l-12.57-14.08q-8.33,10.71-23.1,10.71-9.57,0-15.81-5.66a24.06,24.06,0,0,1-7.48-13.78h61V93.39q0-22.76-11.29-35.15T352.64,45.85ZM369.73,86H334.14c.88-6,2.91-10.89,6.06-14.32a16,16,0,0,1,12.35-5.16q8.15,0,12.57,4.67t4.61,13.2ZM514,31.09H488.38V47.62h-9.21V66.78h9.21V130a13.37,13.37,0,0,0,13.37,13.37h28.59V122.86H514V66.78h16.37V47.62H514ZM720,47.62H693.23l-17.15,26.9-17.14-26.9H632.16l30.54,47.9-30.54,47.89h26.78l17.14-26.9,17.15,26.9H720L689.47,95.52ZM437.15,59V47.62H411.57v95.79h25.58V95.07c0-14.24,6.61-28.26,19-28.26h9.2l.36-19.19h-8C448.69,47.62,442.29,50.25,437.15,59ZM586.46,45.85A44.4,44.4,0,0,0,563.13,52a41.05,41.05,0,0,0-15.8,17.53,57.88,57.88,0,0,0-5.58,25.81v2.48q0,21.51,13.24,34.44t34.3,12.92a51.11,51.11,0,0,0,21.78-4.56,38.36,38.36,0,0,0,15.58-12.7l-12.57-14.08q-8.33,10.71-23.1,10.71-9.57,0-15.81-5.66a24.06,24.06,0,0,1-7.48-13.78h61V93.39q0-22.76-11.29-35.15T586.46,45.85ZM603.55,86H568c.88-6,2.9-10.89,6.06-14.32a16,16,0,0,1,12.35-5.16q8.14,0,12.57,4.67t4.61,13.2Z" fill="#FFF"></path>
		</svg>