<svg id="Layer_1" data-name="Layer 1" xmlns="http://www.w3.org/2000/svg" width="315" height="45" viewBox="0 0 315 45"><defs><style>.cls-1{fill:#444;}.cls-2{fill:#f90;}.cls-3{fill:#0c0;}.cls-4{fill:#09c;}</style></defs><path class="cls-1" d="M50.79,23.56l-2.87-8.48h-4l4.88,14.45h4.05l4.88-14.45h-4Zm14.3-8.75a6.68,6.68,0,0,0-3.52.93,6.23,6.23,0,0,0-2.38,2.64,8.76,8.76,0,0,0-.84,3.9v.37a6.92,6.92,0,0,0,2,5.19,7.12,7.12,0,0,0,5.18,1.95,7.79,7.79,0,0,0,3.28-.68,5.74,5.74,0,0,0,2.35-1.92l-1.89-2.12a4.19,4.19,0,0,1-3.49,1.61,3.4,3.4,0,0,1-2.38-.85,3.65,3.65,0,0,1-1.13-2.08h9.2V22a7.62,7.62,0,0,0-1.7-5.3A6,6,0,0,0,65.09,14.81Zm2.58,6H62.3a4,4,0,0,1,.92-2.16,2.39,2.39,0,0,1,1.86-.78,2.47,2.47,0,0,1,1.89.71,2.86,2.86,0,0,1,.7,2Zm21.75-8.28H85.57v2.5H84.18V18h1.39v9.54a2,2,0,0,0,2,2H91.9v-3.1H89.42V18H91.9V15.08H89.42Zm31.08,2.5h-4l-2.58,4.06-2.59-4.06h-4l4.61,7.22-4.61,7.23h4l2.59-4.06,2.58,4.06h4l-4.6-7.23ZM77.84,16.8V15.08H74V29.53h3.86V22.24c0-2.15,1-4.27,2.87-4.27H82.1l.05-2.89H81A3.17,3.17,0,0,0,77.84,16.8Zm22.52-2a6.68,6.68,0,0,0-3.52.93,6.17,6.17,0,0,0-2.38,2.64,8.76,8.76,0,0,0-.84,3.9v.37a6.92,6.92,0,0,0,2,5.19,7.1,7.1,0,0,0,5.18,1.95,7.83,7.83,0,0,0,3.28-.68,5.8,5.8,0,0,0,2.35-1.92l-1.89-2.12A4.19,4.19,0,0,1,101,26.68a3.39,3.39,0,0,1-2.38-.85,3.59,3.59,0,0,1-1.13-2.08h9.2V22a7.62,7.62,0,0,0-1.7-5.3A6,6,0,0,0,100.36,14.81Zm2.58,6H97.57a4,4,0,0,1,.91-2.16,2.42,2.42,0,0,1,1.87-.78,2.47,2.47,0,0,1,1.89.71,2.86,2.86,0,0,1,.7,2Z"/><polyline class="cls-2" points="26.59 15.09 30.75 22.29 30.73 22.33 26.58 29.54 34.89 29.52 39.06 22.28 34.9 15.08 26.59 15.09"/><polyline class="cls-3" points="14.06 22.31 18.22 15.1 18.27 15.1 26.59 15.09 22.43 7.89 14.06 7.9 9.91 15.1 14.06 22.31"/><polyline class="cls-4" points="14.06 22.31 18.21 29.53 18.27 29.53 26.58 29.54 22.42 36.73 14.06 36.73 9.9 29.53 14.06 22.31"/><path class="cls-1" d="M132.54,29.45V12.39h4.77a7.38,7.38,0,0,1,3.76.95,6.59,6.59,0,0,1,2.59,2.74,8.49,8.49,0,0,1,.94,4.05V21.7a8.59,8.59,0,0,1-.93,4.06,6.61,6.61,0,0,1-2.61,2.73,7.65,7.65,0,0,1-3.86,1ZM134,13.6V28.23h3.23a5.59,5.59,0,0,0,4.33-1.79,6.93,6.93,0,0,0,1.63-4.84V20.1a6.75,6.75,0,0,0-1.61-4.71,5.49,5.49,0,0,0-4.23-1.79Z"/><path class="cls-1" d="M152.83,29.68a5.4,5.4,0,0,1-5-3,6.88,6.88,0,0,1-.73-3.2V23a7.54,7.54,0,0,1,.71-3.3,5.68,5.68,0,0,1,2-2.3,4.89,4.89,0,0,1,2.75-.84,4.57,4.57,0,0,1,3.66,1.58,6.41,6.41,0,0,1,1.35,4.31v.78h-9.05v.27a5.31,5.31,0,0,0,1.24,3.59,3.93,3.93,0,0,0,3.11,1.44,4.65,4.65,0,0,0,2-.41,4.41,4.41,0,0,0,1.56-1.31l.88.66A5.1,5.1,0,0,1,152.83,29.68Zm-.25-11.95a3.51,3.51,0,0,0-2.67,1.16A5.39,5.39,0,0,0,148.59,22h7.61v-.16a4.63,4.63,0,0,0-1-3A3.2,3.2,0,0,0,152.58,17.73Z"/><path class="cls-1" d="M164.12,27.51,168,16.77h1.45l-4.74,12.68h-1.14l-4.75-12.68h1.44Z"/><path class="cls-1" d="M176.62,29.68a5.4,5.4,0,0,1-5-3,6.88,6.88,0,0,1-.73-3.2V23a7.54,7.54,0,0,1,.71-3.3,5.68,5.68,0,0,1,2-2.3,4.89,4.89,0,0,1,2.75-.84A4.6,4.6,0,0,1,180,18.11a6.41,6.41,0,0,1,1.35,4.31v.78h-9v.27a5.31,5.31,0,0,0,1.24,3.59,3.92,3.92,0,0,0,3.11,1.44,4.65,4.65,0,0,0,2-.41,4.41,4.41,0,0,0,1.56-1.31l.88.66A5.1,5.1,0,0,1,176.62,29.68Zm-.25-11.95a3.51,3.51,0,0,0-2.67,1.16A5.39,5.39,0,0,0,172.38,22H180v-.16a4.63,4.63,0,0,0-1.05-3A3.2,3.2,0,0,0,176.37,17.73Z"/><path class="cls-1" d="M185.68,29.45h-1.4v-18h1.4Z"/><path class="cls-1" d="M188.72,22.92a7.33,7.33,0,0,1,.71-3.29,5.36,5.36,0,0,1,2-2.28,5.42,5.42,0,0,1,2.94-.82,5.24,5.24,0,0,1,4.1,1.78A6.86,6.86,0,0,1,200,23v.3a7.58,7.58,0,0,1-.71,3.31,5.34,5.34,0,0,1-2,2.27,5.49,5.49,0,0,1-2.94.79,5.24,5.24,0,0,1-4.1-1.77,6.84,6.84,0,0,1-1.57-4.71Zm1.4.39A5.78,5.78,0,0,0,191.3,27a3.8,3.8,0,0,0,3.09,1.46A3.76,3.76,0,0,0,197.46,27a5.92,5.92,0,0,0,1.18-3.85v-.27a6.45,6.45,0,0,0-.54-2.66,4.34,4.34,0,0,0-1.51-1.87,3.87,3.87,0,0,0-2.22-.66,3.75,3.75,0,0,0-3.06,1.47,5.94,5.94,0,0,0-1.19,3.85Z"/><path class="cls-1" d="M213.13,23.24a7.6,7.6,0,0,1-1.32,4.7,4.16,4.16,0,0,1-3.51,1.74,4.71,4.71,0,0,1-4-1.83v6.47h-1.39V16.77h1.3l.07,1.79a4.51,4.51,0,0,1,4-2,4.21,4.21,0,0,1,3.57,1.73,7.76,7.76,0,0,1,1.3,4.78ZM211.72,23a6.47,6.47,0,0,0-1-3.83A3.2,3.2,0,0,0,208,17.75a3.93,3.93,0,0,0-2.22.62,4,4,0,0,0-1.42,1.81v6.08a3.69,3.69,0,0,0,1.45,1.66,4.07,4.07,0,0,0,2.21.58,3.18,3.18,0,0,0,2.76-1.41A7.11,7.11,0,0,0,211.72,23Z"/><path class="cls-1" d="M221.14,29.68a5.4,5.4,0,0,1-4.95-3,6.88,6.88,0,0,1-.73-3.2V23a7.54,7.54,0,0,1,.71-3.3,5.68,5.68,0,0,1,2-2.3,4.88,4.88,0,0,1,2.74-.84,4.61,4.61,0,0,1,3.67,1.58,6.41,6.41,0,0,1,1.35,4.31v.78h-9.05v.27a5.31,5.31,0,0,0,1.24,3.59,3.92,3.92,0,0,0,3.11,1.44,4.65,4.65,0,0,0,2-.41,4.41,4.41,0,0,0,1.56-1.31l.88.66A5.1,5.1,0,0,1,221.14,29.68Zm-.26-11.95a3.51,3.51,0,0,0-2.66,1.16A5.39,5.39,0,0,0,216.9,22h7.61v-.16a4.63,4.63,0,0,0-1-3A3.21,3.21,0,0,0,220.88,17.73Z"/><path class="cls-1" d="M234.49,18a5.7,5.7,0,0,0-1-.08,3.49,3.49,0,0,0-2.22.73A4,4,0,0,0,230,20.74v8.71h-1.4V16.77H230l0,2a3.72,3.72,0,0,1,3.57-2.25,2.19,2.19,0,0,1,.93.16Z"/><path class="cls-1" d="M244.31,22.5v7h-1.44V12.39h5.81a6.08,6.08,0,0,1,4.2,1.36,4.7,4.7,0,0,1,1.54,3.73,4.68,4.68,0,0,1-1.48,3.71,6.31,6.31,0,0,1-4.29,1.31Zm0-1.22h4.37a4.58,4.58,0,0,0,3.2-1A3.53,3.53,0,0,0,253,17.5a3.72,3.72,0,0,0-1.09-2.82,4.42,4.42,0,0,0-3.11-1.08h-4.47Z"/><path class="cls-1" d="M256.39,22.92a7.46,7.46,0,0,1,.71-3.29,5.32,5.32,0,0,1,2-2.28,5.41,5.41,0,0,1,2.93-.82,5.21,5.21,0,0,1,4.1,1.78,6.81,6.81,0,0,1,1.57,4.7v.3a7.44,7.44,0,0,1-.71,3.31,5.32,5.32,0,0,1-2,2.27,5.5,5.5,0,0,1-2.95.79A5.21,5.21,0,0,1,258,27.91a6.84,6.84,0,0,1-1.58-4.71Zm1.41.39A5.73,5.73,0,0,0,259,27a4,4,0,0,0,6.16,0,5.92,5.92,0,0,0,1.18-3.85v-.27a6.45,6.45,0,0,0-.54-2.66,4.34,4.34,0,0,0-1.51-1.87,3.88,3.88,0,0,0-2.23-.66A3.75,3.75,0,0,0,259,19.2a5.94,5.94,0,0,0-1.18,3.85Z"/><path class="cls-1" d="M276.47,18a5.8,5.8,0,0,0-1-.08,3.45,3.45,0,0,0-2.22.73,4,4,0,0,0-1.3,2.13v8.71h-1.39V16.77H272l0,2a3.74,3.74,0,0,1,3.58-2.25,2.11,2.11,0,0,1,.92.16Z"/><path class="cls-1" d="M281.45,13.52v3.25h2.62v1.15h-2.62v8.46a2.62,2.62,0,0,0,.38,1.57,1.48,1.48,0,0,0,1.27.51,10.28,10.28,0,0,0,1.14-.11l.05,1.14a4.6,4.6,0,0,1-1.5.19,2.47,2.47,0,0,1-2.09-.84,3.9,3.9,0,0,1-.66-2.46V17.92h-2.33V16.77H280V13.52Z"/><path class="cls-1" d="M295,29.45a6.72,6.72,0,0,1-.27-1.77,4.91,4.91,0,0,1-1.88,1.48,5.72,5.72,0,0,1-2.42.52,4.26,4.26,0,0,1-3-1,3.34,3.34,0,0,1-1.13-2.58,3.39,3.39,0,0,1,1.54-2.92,7.41,7.41,0,0,1,4.3-1.08h2.54V20.64a2.77,2.77,0,0,0-.84-2.14,3.46,3.46,0,0,0-2.44-.78,3.83,3.83,0,0,0-2.43.75,2.23,2.23,0,0,0-1,1.8h-1.4a3.28,3.28,0,0,1,1.4-2.62,5.41,5.41,0,0,1,3.46-1.11,5,5,0,0,1,3.35,1.06,3.86,3.86,0,0,1,1.26,3v6a7.45,7.45,0,0,0,.38,2.76v.14Zm-4.4-1a4.75,4.75,0,0,0,2.51-.68,3.94,3.94,0,0,0,1.61-1.82V23.16h-2.51a6.29,6.29,0,0,0-3.28.76,2.31,2.31,0,0,0-1.18,2,2.26,2.26,0,0,0,.79,1.77A3,3,0,0,0,290.58,28.44Z"/><path class="cls-1" d="M301.4,29.45H300v-18h1.4Z"/></svg>