<?xml version="1.0" encoding="utf-8"?>
<svg version="1.1" id="Layer_1" xmlns="http://www.w3.org/2000/svg" xmlns:xlink="http://www.w3.org/1999/xlink" x="0px" y="0px"
	 viewBox="0 0 238 100" style="enable-background:new 0 0 238 100;" xml:space="preserve">
<style type="text/css">
	.st0{fill:#F8991D;}
	.st1{fill:#00CC00;}
	.st2{fill:#0099CC;}
	.st3{fill:#444444;}
</style>
<g>
	<g>
		<polyline class="st0" points="36.56269,34.17451 45.69116,49.94009 45.63582,50.03623 36.54668,65.82461 54.76451,65.80178 
			63.90891,49.9174 54.78032,34.15168 36.56269,34.17451 		"/>
		<polyline class="st1" points="9.12245,50 18.23462,34.18047 18.34555,34.18043 36.56327,34.1745 27.44916,18.40038 
			9.12067,18.40635 0.01686,34.1864 9.12245,50 		"/>
		<polyline class="st2" points="9.12245,50 18.21775,65.81953 18.32869,65.81957 36.54641,65.8255 27.43229,81.59962 
			9.10381,81.59365 0,65.81361 9.12245,50 		"/>
	</g>
	<g>
		<path class="st3" d="M85.21415,52.73091l-6.2779-18.58862h-8.84921L80.7807,65.8057h8.8669l10.69366-31.66342h-8.84921
			L85.21415,52.73091z M116.5676,33.55677c-2.88754,0-5.45767,0.67789-7.71095,2.0337
			c-2.25356,1.35638-3.99452,3.28794-5.22374,5.79464c-1.22897,2.50667-1.84375,5.35033-1.84375,8.53032v0.81913
			c0,4.74073,1.45827,8.53549,4.37511,11.38372c2.91623,2.84879,6.69638,4.27293,11.33981,4.27293
			c2.63386,0,5.0335-0.50282,7.19892-1.50735c2.16546-1.00452,3.88205-2.40396,5.15057-4.19944l-4.15549-4.65291
			c-1.83398,2.3609-4.37999,3.54105-7.63807,3.54105c-2.1069,0-3.84815-0.62453-5.22346-1.873
			c-1.37563-1.24847-2.19992-2.90675-2.47284-4.55601h20.16291v-3.87214c0-5.0134-1.24359-8.88621-3.73105-11.61794
			C124.30809,34.92235,120.89877,33.55677,116.5676,33.55677z M122.21555,46.81456h-11.76402
			c0.29245-1.97104,0.96061-3.5978,2.00444-4.73433c1.04354-1.13656,2.40424-1.7048,4.08237-1.7048
			c1.79464,0,3.17971,0.51429,4.15553,1.54294c0.97523,1.02918,1.48237,2.4837,1.52168,4.36474V46.81456z M169.89444,28.67626
			H161.437v5.46599h-3.04544v6.33327h3.04544v20.91099c0,2.44065,1.97855,4.41919,4.41919,4.41919h9.45171v-6.79166h-5.41345
			V40.47552h5.41345v-6.33327h-5.41345V28.67626z M238,34.14228h-8.84917l-5.66809,8.89114l-5.66808-8.89114h-8.84921
			L219.05814,49.974L208.96545,65.8057h8.84921l5.66808-8.89113l5.66809,8.89113H238L227.90735,49.974L238,34.14228z
			 M144.5023,37.91695v-3.7747h-8.45715V65.8057h8.45715V49.82727c0-4.70679,2.1835-9.34365,6.29256-9.34365
			c0.87708,0,3.04338,0,3.04338,0l0.11711-6.34137c0,0-1.69791,0-2.63354,0
			C148.31628,34.14225,146.20021,35.01017,144.5023,37.91695z M193.85805,33.55677c-2.88757,0-5.45767,0.67789-7.71094,2.0337
			c-2.25356,1.35638-3.99452,3.28794-5.22379,5.79464c-1.22893,2.50667-1.8437,5.35033-1.8437,8.53032v0.81913
			c0,4.74073,1.45827,8.53549,4.37511,11.38372c2.91623,2.84879,6.69638,4.27293,11.33981,4.27293
			c2.63382,0,5.03346-0.50282,7.19891-1.50735c2.16547-1.00452,3.88202-2.40396,5.15057-4.19944l-4.15553-4.65291
			c-1.83394,2.3609-4.37994,3.54105-7.63803,3.54105c-2.1069,0-3.84814-0.62453-5.22348-1.873
			c-1.3756-1.24847-2.19989-2.90675-2.47281-4.55601h20.1629v-3.87214c0-5.0134-1.24359-8.88621-3.73108-11.61794
			C201.59854,34.92235,198.18922,33.55677,193.85805,33.55677z M199.50601,46.81456h-11.76402
			c0.29245-1.97104,0.9606-3.5978,2.00444-4.73433c1.04355-1.13656,2.40424-1.7048,4.08234-1.7048
			c1.79463,0,3.17973,0.51429,4.15553,1.54294c0.97525,1.02918,1.48236,2.4837,1.52171,4.36474V46.81456z"/>
	</g>
</g>
</svg>
