<svg height="16" viewBox="0 0 16 16" width="16" xmlns="http://www.w3.org/2000/svg"><path d="m13.55 2-5.5-.5h-.05l-5.55.5a.51.51 0 0 0 -.45.5v5.88a6.19 6.19 0 0 0 2.87 5.22l2.86 1.82a.48.48 0 0 0 .54 0l2.86-1.82a6.19 6.19 0 0 0 2.87-5.22v-5.88a.51.51 0 0 0 -.45-.5zm-5.55 12.41-2.56-1.63a4.09 4.09 0 0 1 .56-1.78 2.19 2.19 0 0 1 2-.93 2.19 2.19 0 0 1 2 .93 4.09 4.09 0 0 1 .6 1.76zm-2-7.41a2 2 0 1 1 2 2 2 2 0 0 1 -2-2zm7 1.38a5.19 5.19 0 0 1 -1.55 3.69 4.57 4.57 0 0 0 -.67-1.62 2.94 2.94 0 0 0 -1.09-1 3 3 0 1 0 -3.38 0 2.94 2.94 0 0 0 -1.09 1 4.57 4.57 0 0 0 -.67 1.62 5.19 5.19 0 0 1 -1.55-3.69v-5.38l5-.5 5 .5z" fill="#616161"/></svg>