<svg enable-background="new 0 0 24 24" height="24" viewBox="0 0 24 24" width="24" xmlns="http://www.w3.org/2000/svg"><path d="m0 0h24v24h-24z" fill="none"/><path d="m13 13c-.56.56-1.45.56-2 .01v-.01c-.55-.55-.55-1.44 0-1.99v-.01c.55-.55 1.44-.55 1.99 0h.01c.55.55.55 1.45 0 2zm-1-7 2.12 2.12 2.5-2.5-3.2-3.2c-.78-.78-2.05-.78-2.83 0l-3.2 3.2 2.5 2.5zm-6 6 2.12-2.12-2.5-2.5-3.2 3.2c-.78.78-.78 2.05 0 2.83l3.2 3.2 2.5-2.5zm12 0-2.12 2.12 2.5 2.5 3.2-3.2c.78-.78.78-2.05 0-2.83l-3.2-3.2-2.5 2.5zm-6 6-2.12-2.12-2.5 2.5 3.2 3.2c.78.78 2.05.78 2.83 0l3.2-3.2-2.5-2.5z"/></svg>