<svg height="16" viewBox="0 0 16 16" width="16" xmlns="http://www.w3.org/2000/svg"><path d="m8 5.37a.5.5 0 0 0 -.5.5.5.5 0 0 0 1 0 .5.5 0 0 0 -.5-.5zm-1.57 4.22a.5.5 0 0 0 -.54-.85.5.5 0 0 0 .54.84zm-1.84 1.17a.5.5 0 1 0 -.54-.84.49.49 0 0 0 -.16.69.5.5 0 0 0 .7.15zm3.41-7.5a.5.5 0 0 0 -.5.5.5.5 0 1 0 1 0 .5.5 0 0 0 -.5-.5zm5.73.8-5.5-2.85a.47.47 0 0 0 -.42 0l-5.54 2.85a.48.48 0 0 0 -.27.44v7a.6.6 0 0 0 .06.23v.06.06a.31.31 0 0 0 .09.07l5.5 2.85a.47.47 0 0 0 .46 0l5.5-2.85a.31.31 0 0 0 .09-.07l.05-.06v-.06a.6.6 0 0 0 .25-.23v-7a.48.48 0 0 0 -.27-.44zm-6.23 9.47-4.5-2.33v-5.79l4.5 2.86zm.5-6.12-4.5-2.87 4.5-2.33 4.5 2.33zm5 3.79-4.5 2.33v-5.26l4.5-2.86zm-1.61-.45a.5.5 0 0 0 .54-.85.5.5 0 0 0 -.54.84zm-1.83-1.17a.5.5 0 1 0 .54-.84.5.5 0 0 0 -.69.15.49.49 0 0 0 .15.69z" fill="#616161"/></svg>